<svg width="19" height="22" viewBox="0 0 19 22" fill="none" xmlns="http://www.w3.org/2000/svg">
<path d="M18.5 19.0391C18.5 19.4921 18.1269 19.8594 17.6667 19.8594H16.8333V20.6797C16.8333 21.1327 16.4602 21.5 16 21.5C15.5398 21.5 15.1667 21.1327 15.1667 20.6797V19.8594H14.3333C13.8731 19.8594 13.5 19.4921 13.5 19.0391C13.5 18.586 13.8731 18.2188 14.3333 18.2188H15.1667V17.3984C15.1667 16.9454 15.5398 16.5781 16 16.5781C16.4602 16.5781 16.8333 16.9454 16.8333 17.3984V18.2188H17.6667C18.1269 18.2188 18.5 18.586 18.5 19.0391ZM18.5 6.24219V14.1172C18.5 14.5702 18.1269 14.9375 17.6667 14.9375C17.2064 14.9375 16.8333 14.5702 16.8333 14.1172V7.0625H15.1667V9.52344C15.1667 9.9765 14.7936 10.3438 14.3333 10.3438C13.8731 10.3438 13.5 9.9765 13.5 9.52344V7.0625H5.5V9.52344C5.5 9.9765 5.12692 10.3438 4.66667 10.3438C4.20642 10.3438 3.83333 9.9765 3.83333 9.52344V7.0625H2.16667V19.8594H11C11.4602 19.8594 11.8333 20.2266 11.8333 20.6797C11.8333 21.1327 11.4602 21.5 11 21.5H1.33333C0.873083 21.5 0.5 21.1327 0.5 20.6797V6.24219C0.5 5.78913 0.873083 5.42188 1.33333 5.42188H3.87275C4.20379 2.65426 6.60096 0.5 9.5 0.5C12.399 0.5 14.7962 2.65426 15.1272 5.42188H17.6667C18.1269 5.42188 18.5 5.78913 18.5 6.24219ZM13.4441 5.42188C13.1258 3.56202 11.4785 2.14062 9.5 2.14062C7.52154 2.14062 5.87421 3.56202 5.55588 5.42188H13.4441Z" fill="white"/>
</svg>
