<svg width="32" height="33" viewBox="0 0 32 33" fill="none" xmlns="http://www.w3.org/2000/svg">
<g clip-path="url(#clip0_278_5)">
<path d="M8.81663 20.7985C8.3861 20.4365 7.84651 20.2371 7.29727 20.2371C6.55085 20.2371 5.85576 20.59 5.3902 21.2055C4.98312 21.7442 4.79881 22.4183 4.87146 23.1032C4.9442 23.7897 5.26603 24.4045 5.77755 24.8347C6.20808 25.1968 6.74748 25.3962 7.29662 25.3962C8.04361 25.3962 8.73879 25.0426 9.20397 24.4265C9.61068 23.8887 9.79481 23.2154 9.72244 22.5308C9.64988 21.8443 9.32824 21.229 8.81663 20.7985ZM8.33726 23.6852C8.0841 24.0206 7.70473 24.2131 7.29662 24.2131C6.9924 24.2131 6.70551 24.1071 6.46717 23.9066C6.19001 23.6735 6.01579 23.3411 5.97641 22.9706C5.93731 22.6015 6.03683 22.2379 6.25654 21.9472C6.5098 21.6124 6.88917 21.4203 7.29727 21.4203C7.60177 21.4203 7.88876 21.5263 8.127 21.7267C8.40408 21.9598 8.5782 22.2923 8.61739 22.6631C8.65641 23.0318 8.55707 23.3947 8.33726 23.6852Z" fill="black"/>
<path d="M18.5937 14.7391C18.9605 14.7391 19.3151 14.6536 19.6486 14.4845C20.2382 14.1844 20.681 13.6593 20.8953 13.006C21.1086 12.3568 21.0702 11.6582 20.7876 11.0395C20.3833 10.1527 19.5198 9.57965 18.5879 9.57965C18.2204 9.57965 17.865 9.66543 17.5316 9.83473C16.9422 10.1339 16.4992 10.6585 16.2845 11.3121C16.0709 11.9617 16.1091 12.6604 16.3922 13.2794C16.7978 14.1661 17.6619 14.7391 18.5937 14.7391ZM17.334 11.7026C17.4502 11.3491 17.6904 11.065 18.0103 10.9026C18.193 10.8099 18.3872 10.7628 18.5878 10.7628C19.0966 10.7628 19.5673 11.0741 19.7872 11.5564C19.9396 11.89 19.9603 12.2662 19.8455 12.6158C19.7294 12.9695 19.489 13.2541 19.1694 13.4168C18.9874 13.5092 18.7936 13.5559 18.5936 13.5559C18.0843 13.5559 17.6127 13.2441 17.3919 12.7617C17.2397 12.4285 17.2191 12.0524 17.334 11.7026Z" fill="black"/>
<path d="M12.5431 10.5581C12.7219 10.6011 12.905 10.6229 13.0871 10.6229C14.2317 10.6229 15.2096 9.79922 15.4653 8.61869C15.6091 7.94929 15.4985 7.26018 15.1543 6.67804C14.8073 6.09138 14.2649 5.68357 13.6276 5.52995C13.448 5.48656 13.2642 5.46448 13.0813 5.46448C11.9374 5.46448 10.9606 6.28907 10.7056 7.46941C10.5607 8.13831 10.6705 8.82752 11.0148 9.41005C11.3621 9.99751 11.905 10.4053 12.5431 10.5581ZM11.7894 7.73484C11.9275 7.09483 12.4589 6.64777 13.0813 6.64777C13.1813 6.64777 13.2822 6.6599 13.3815 6.68386C13.7291 6.76767 14.0245 6.98942 14.2131 7.3083C14.399 7.62253 14.4587 7.99425 14.3814 8.35395C14.2451 8.98311 13.7007 9.43973 13.087 9.43973C12.9873 9.43973 12.8867 9.4277 12.7877 9.40394C12.44 9.32062 12.1446 9.09907 11.9561 8.78019C11.7705 8.46615 11.7113 8.09502 11.7894 7.73484Z" fill="black"/>
<path d="M8.12481 12.0341C8.63577 11.6033 8.95704 10.988 9.02969 10.3014C9.10206 9.61693 8.91831 8.94369 8.51141 8.40484C8.04511 7.78968 7.34947 7.43689 6.60305 7.43689C6.05437 7.43689 5.51533 7.63567 5.08471 7.99704C4.57366 8.42654 4.2522 9.04091 4.17927 9.72697C4.10644 10.4123 4.29066 11.0868 4.69829 11.6265C5.16422 12.2424 5.85996 12.5956 6.60722 12.5956C7.15635 12.5955 7.69539 12.3962 8.12481 12.0341ZM5.56491 10.8847C5.34473 10.5933 5.24512 10.2292 5.28441 9.85969C5.3237 9.48964 5.49772 9.15775 5.77387 8.92555C6.01211 8.72559 6.29892 8.61989 6.60314 8.61989C7.01161 8.61989 7.39182 8.81216 7.64526 9.14651C7.86442 9.43699 7.96375 9.80013 7.92474 10.169C7.88554 10.5401 7.71133 10.8732 7.43435 11.1067C7.19722 11.3065 6.91116 11.4122 6.60731 11.4122C6.19837 11.4123 5.81844 11.2199 5.56491 10.8847Z" fill="black"/>
<path d="M30.8641 6.24489C30.768 6.14176 30.5965 6.0188 30.326 6.0188C30.0088 6.0188 29.1662 6.0188 24.0488 10.6522C23.946 10.7453 23.8422 10.8396 23.738 10.9347C22.8237 8.39683 21.2172 6.13426 19.1472 4.4977C16.7736 2.62125 13.9473 1.62884 10.974 1.62805C10.9731 1.62805 10.9724 1.62805 10.9717 1.62805C8.96512 1.62805 6.52596 2.37406 4.60583 3.5753C2.25211 5.04759 0.95608 7.01663 0.956543 9.11947C0.957284 11.6582 2.30298 12.7201 3.3843 13.5733C4.26602 14.2691 4.96241 14.8186 4.96278 16.0229C4.96305 17.2271 4.26704 17.7761 3.38578 18.4713C2.30483 19.324 0.959416 20.3853 0.960157 22.9243C0.960713 25.0269 2.25757 26.9964 4.61176 28.47C6.53328 29.6727 8.97373 30.4203 10.9807 30.4209C10.9821 30.4209 10.9833 30.4209 10.9846 30.4209C14.6268 30.4209 18.0507 28.925 20.6259 26.2087C23.1683 23.5271 24.5823 19.9727 24.6195 16.1849C25.4828 15.1397 26.3191 14.1007 27.0825 13.1217C28.3888 11.4469 29.3932 10.0649 30.0679 9.01437C30.9617 7.62283 31.3531 6.76934 30.8641 6.24489ZM19.8432 25.3684C17.4775 27.8638 14.3319 29.2377 10.9847 29.2377C10.9837 29.2377 10.9822 29.2377 10.9812 29.2377C7.39433 29.2366 2.07317 26.5851 2.07215 22.9239C2.07159 20.9808 3.03161 20.2235 4.04807 19.4217C4.99817 18.6721 6.07505 17.8226 6.07468 16.0225C6.07412 14.2228 4.99697 13.3728 4.04659 12.6229C3.02967 11.8204 2.06909 11.0625 2.06854 9.11918C2.06807 6.871 4.0111 5.31983 5.16942 4.59522C6.90209 3.51131 9.17936 2.81115 10.9717 2.81115C10.9724 2.81115 10.9731 2.81115 10.9737 2.81115C13.7065 2.81194 16.3035 3.72359 18.4841 5.44732C20.4951 7.03724 22.0302 9.26915 22.8388 11.7625C20.4272 14.0031 17.8157 16.5864 15.8708 18.6626C12.6405 19.1074 12.2005 21.3981 11.8787 23.0809C11.6048 24.5138 11.427 25.2065 10.3875 25.2953C10.1314 25.3172 9.92282 25.5228 9.88288 25.7929C9.84285 26.0629 9.98194 26.3269 10.2194 26.4315C10.2862 26.4609 11.8759 27.1521 13.7333 27.1522C13.7336 27.1522 13.7338 27.1522 13.734 27.1522C15.0283 27.1522 16.1387 26.8183 17.034 26.16C18.1373 25.3487 18.8854 24.0625 19.2613 22.3376C20.5321 20.9696 21.9841 19.32 23.4198 17.6209C23.0894 20.5463 21.8487 23.2531 19.8432 25.3684ZM18.1442 22.2256C17.5551 24.7099 16.0726 25.9692 13.7339 25.9691C13.7339 25.9691 13.7335 25.9691 13.7333 25.9691C13.1166 25.9691 12.5261 25.8796 12.0296 25.768C12.6226 25.1244 12.8079 24.156 12.9683 23.317C13.2738 21.7189 13.5627 20.2064 15.9265 19.8471L18.1442 22.2256ZM25.8222 12.8822C23.6181 15.6763 20.9503 18.8139 18.7541 21.1995L18.4141 20.8349L16.9139 19.2261C18.9051 17.117 21.4596 14.6022 23.8428 12.4014C24.1207 12.1448 24.3967 11.8915 24.6688 11.6446C27.4346 9.13476 28.8841 8.04247 29.6234 7.56712C29.1819 8.35858 28.1648 9.91261 25.8222 12.8822Z" fill="black"/>
</g>
<defs>
<clipPath id="clip0_278_5">
<rect width="30.1202" height="32.0489" fill="white" transform="translate(0.956543)"/>
</clipPath>
</defs>
</svg>
