<svg width="86" height="20" viewBox="0 0 86 20" fill="none" xmlns="http://www.w3.org/2000/svg">
<path fill-rule="evenodd" clip-rule="evenodd" d="M57.2841 0C55.5506 0 54.1454 1.361 54.1454 3.03988V16.8652C54.1454 18.5441 55.5506 19.9051 57.2841 19.9051H82.8612C84.5947 19.9051 85.9999 18.5441 85.9999 16.8652V3.03988C85.9999 1.361 84.5947 0 82.8612 0H57.2841ZM61.7013 13.8905V10.3861H63.9775C66.0571 10.3861 67.163 9.25679 67.163 7.54537C67.163 5.83394 66.0571 4.8094 63.9775 4.8094H60.2348V13.8905H61.7013ZM61.7013 6.15993H63.6409C64.9872 6.15993 65.6484 6.69548 65.6484 7.59194C65.6484 8.4884 65.0112 9.02395 63.701 9.02395H61.7013V6.15993ZM69.7485 14.0767C70.8664 14.0767 71.5997 13.5994 71.9363 12.7844C72.0324 13.6926 72.5974 14.1583 73.8235 13.8439L73.8355 12.8776C73.3426 12.9241 73.2466 12.7495 73.2466 12.2489V9.87384C73.2466 8.47676 72.2969 7.65015 70.5418 7.65015C68.8108 7.65015 67.8131 8.4884 67.8131 9.90877H69.1595C69.1595 9.23351 69.6523 8.82602 70.5177 8.82602C71.4314 8.82602 71.8521 9.21023 71.8401 9.87384V10.1765L70.2895 10.3395C68.5464 10.5258 67.5847 11.1661 67.5847 12.2838C67.5847 13.2035 68.2579 14.0767 69.7485 14.0767ZM70.049 13.0289C69.2917 13.0289 68.9912 12.633 68.9912 12.2372C68.9912 11.7017 69.6162 11.4572 70.8424 11.3175L71.804 11.2127C71.7439 12.2372 71.0347 13.0289 70.049 13.0289ZM78.2882 14.3445C77.6751 15.7882 76.6895 16.2189 75.1508 16.2189H74.4896V15.0315H75.1989C76.0404 15.0315 76.4491 14.7752 76.8938 14.0418L74.1651 7.83643H75.6798L77.6272 12.3654L79.3581 7.83643H80.8366L78.2882 14.3445Z" fill="white"/>
<path d="M7.22682 8.74933C5.2188 8.32746 4.32425 8.16238 4.32425 7.41295C4.32425 6.70809 4.92964 6.35695 6.14039 6.35695C7.2052 6.35695 7.98354 6.80766 8.55648 7.69071C8.59972 7.75884 8.68891 7.78243 8.76187 7.74574L11.0212 6.63995C11.1023 6.60065 11.132 6.50107 11.0861 6.42509C10.1483 4.85026 8.41595 3.98816 6.13498 3.98816C3.13783 3.98816 1.27576 5.41887 1.27576 7.69333C1.27576 10.1093 3.54321 10.7198 5.55392 11.1417C7.56464 11.5636 8.46189 11.7287 8.46189 12.478C8.46189 13.2276 7.80787 13.5812 6.50253 13.5812C5.29718 13.5812 4.40263 13.0467 3.86212 12.0091C3.82157 11.9331 3.72698 11.9016 3.64861 11.9409L1.39467 13.0232C1.31629 13.0624 1.28387 13.1541 1.3244 13.2328C2.21895 14.9752 4.054 15.9552 6.50522 15.9552C9.6267 15.9552 11.5131 14.5482 11.5131 12.2029C11.5131 9.85775 9.23482 9.17645 7.22682 8.75457V8.74933Z" fill="white"/>
<path d="M19.3343 3.98818C18.0533 3.98818 16.9209 4.42839 16.1075 5.21188C16.0561 5.25905 15.9723 5.22499 15.9723 5.15685V0.154601C15.9723 0.0681291 15.902 0 15.8129 0H12.9859C12.8968 0 12.8265 0.0681291 12.8265 0.154601V15.6802C12.8265 15.7667 12.8968 15.8347 12.9859 15.8347H15.8129C15.902 15.8347 15.9723 15.7667 15.9723 15.6802V8.86989C15.9723 7.55447 17.0128 6.54563 18.4154 6.54563C19.8181 6.54563 20.8342 7.53351 20.8342 8.86989V15.6802C20.8342 15.7667 20.9045 15.8347 20.9936 15.8347H23.8206C23.9098 15.8347 23.9801 15.7667 23.9801 15.6802V8.86989C23.9801 6.00846 22.045 3.99079 19.3343 3.99079V3.98818Z" fill="white"/>
<path d="M29.7148 3.54272C28.1797 3.54272 26.7419 3.99868 25.7095 4.65638C25.6393 4.70092 25.615 4.79264 25.6582 4.86338L26.9041 6.9256C26.9501 6.99897 27.0473 7.02518 27.1229 6.98063C27.9068 6.52207 28.804 6.28362 29.7202 6.28886C32.1876 6.28886 34.001 7.97636 34.001 10.2063C34.001 12.106 32.5497 13.5132 30.7092 13.5132C29.2093 13.5132 28.1689 12.6668 28.1689 11.4719C28.1689 10.788 28.4688 10.2272 29.2499 9.83157C29.331 9.78965 29.3607 9.69269 29.3121 9.6167L28.1364 7.68813C28.0986 7.62524 28.0176 7.59641 27.9445 7.62261C26.369 8.18862 25.2637 9.55119 25.2637 11.3802C25.2637 14.1473 27.5364 16.2122 30.7066 16.2122C34.4091 16.2122 37.0711 13.7255 37.0711 10.1591C37.0711 6.33603 33.974 3.54272 29.7148 3.54272Z" fill="white"/>
<path d="M45.3381 3.96722C43.9083 3.96722 42.6328 4.4782 41.7004 5.3796C41.649 5.42938 41.5653 5.3927 41.5653 5.32456V4.23975C41.5653 4.15327 41.495 4.08514 41.4057 4.08514H38.6518C38.5627 4.08514 38.4924 4.15327 38.4924 4.23975V19.7417C38.4924 19.8282 38.5627 19.8964 38.6518 19.8964H41.4788C41.5679 19.8964 41.6382 19.8282 41.6382 19.7417V14.6583C41.6382 14.5901 41.722 14.5561 41.7733 14.6006C42.703 15.4392 43.9327 15.9292 45.3407 15.9292C48.6568 15.9292 51.2431 13.3271 51.2431 9.94687C51.2431 6.56661 48.654 3.9646 45.3407 3.9646L45.3381 3.96722ZM44.8056 13.3035C42.9192 13.3035 41.4896 11.8492 41.4896 9.9259C41.4896 8.00256 42.9165 6.54827 44.8056 6.54827C46.6947 6.54827 48.119 7.97898 48.119 9.9259C48.119 11.8728 46.7137 13.3035 44.8029 13.3035H44.8056Z" fill="white"/>
</svg>
