<svg width="197" height="43" viewBox="0 0 197 43" fill="none" xmlns="http://www.w3.org/2000/svg">
<path d="M42.8463 0H28.4969V14.2673H42.8463V0Z" fill="#FF0068"/>
<path d="M28.4969 14.4654H14.3495V28.7327H28.4969V14.4654Z" fill="#FF0068"/>
<path d="M14.1474 28.7327H0V43H14.1474V28.7327Z" fill="#FF0068"/>
<path d="M71.9495 14.4654L74.88 22.1955L77.8106 14.4654H82.8632V28.5346H79.2253V19.4194L75.4985 28.5465L73.9928 28.5108C72.9055 25.6474 71.9798 22.681 70.7874 19.8553C70.6621 19.56 70.9127 19.3183 70.3327 19.4194V28.5346H66.8969V14.4654H71.9495Z" fill="#FF0068"/>
<path d="M189.221 17.6835C189.057 17.842 188.942 18.2582 188.999 18.4841C189.241 19.455 193.318 19.9306 194.472 20.4617C196.776 21.5198 197.509 23.5331 196.655 25.8654C195.139 29.9989 187.568 29.5571 184.947 26.6224L186.654 23.9631C188.488 25.0946 191.361 26.8146 193.269 24.9103C193.967 23.4697 189.858 23.1071 188.861 22.79C186.365 21.9974 184.745 20.2159 185.519 17.525C186.751 13.2369 193.688 13.5301 196.558 16.0428L194.729 18.811C193.831 17.8519 190.129 16.7997 189.219 17.6815L189.221 17.6835Z" fill="#FF0068"/>
<path d="M178.257 14.4654V17.4378H171.891C171.298 18.0124 171.693 19.0508 171.587 19.8157H178.257V22.9862H171.587V25.5622H178.257V28.5346H167.95V14.4654H178.257Z" fill="#FF0068"/>
<path d="M105.903 14.4654L108.432 18.8269C108.84 18.9101 108.684 18.706 108.779 18.5673C109.65 17.2832 110.416 15.8288 111.158 14.4654H115.402L111.023 21.3018L115.806 28.5346H111.663L108.63 23.977C108.351 23.9116 108.284 24.1394 108.159 24.3039C107.181 25.5959 106.469 27.2743 105.398 28.5326H101.255L106.039 21.2999L101.659 14.4635H105.903V14.4654Z" fill="#FF0068"/>
<path d="M132.783 14.4654V17.4378H128.943V28.5346H125.305V17.735L125.002 17.4378H121.263V14.4654H132.783Z" fill="#FF0068"/>
<path d="M155.015 14.4654V25.5622H160.674V28.5346H151.377V14.4654H155.015Z" fill="#FF0068"/>
<path d="M94.3832 14.4654H90.9474V28.5346H94.3832V14.4654Z" fill="#FF0068"/>
<path d="M143.495 14.4654H140.059V28.5346H143.495V14.4654Z" fill="#FF0068"/>
</svg>
