<svg width="116" height="46" viewBox="0 0 116 46" fill="none" xmlns="http://www.w3.org/2000/svg">
<path fill-rule="evenodd" clip-rule="evenodd" d="M0 46V0H116V46H0Z" fill="#0058AB"/>
<path fill-rule="evenodd" clip-rule="evenodd" d="M2.32 23C2.32 34.3045 25.6592 43.7 58.0116 43.7C90.364 43.7 113.68 34.3045 113.68 23C113.68 11.6955 90.3408 2.3 58.0116 2.3C25.6824 2.3 2.32 11.6955 2.32 23Z" fill="#FBD914"/>
<path d="M53.882 29.9C54.2532 30.4175 54.6476 30.9005 55.1116 31.3375H42.5604C42.5604 30.8545 42.0732 29.877 41.5512 29.1065C41.0176 28.336 38.1408 24.104 38.1408 24.104V29.9115C38.1408 30.3945 38.1408 30.866 38.396 31.349H27.9328C28.188 30.866 28.188 30.3945 28.188 29.9115V16.1115C28.188 15.6285 28.188 15.157 27.9328 14.674H38.396C38.1408 15.157 38.1408 15.6285 38.1408 16.1115V22.149C38.1408 22.149 41.4816 17.9285 42.2472 16.951C42.8272 16.215 43.5464 15.1685 43.5464 14.6855H54.4504C53.6964 15.1685 52.8728 16.0425 52.1884 16.836C51.5852 17.549 48.198 21.551 48.198 21.551C48.198 21.551 53.2208 28.9685 53.882 29.923V29.9ZM57.1764 16.1V29.9C57.1764 30.383 57.1764 30.8545 56.9212 31.3375H77.1052V26.703C76.6064 26.9445 76.1192 26.9445 75.6204 26.9445H67.1292V24.7595H75.2956V21.252H67.1292V19.044H75.6204C76.1192 19.044 76.6064 19.044 77.1052 19.274V14.651H56.9212C57.1764 15.1455 57.1764 15.617 57.1764 16.1ZM105.073 29.9C105.235 30.429 105.525 30.912 105.885 31.3375H94.946C94.9924 30.8545 94.8184 30.383 94.6096 29.9C94.6096 29.9 94.4472 29.509 94.2152 28.9455L94.1108 28.704H87.812L87.7076 28.957C87.7076 28.957 87.522 29.4285 87.3596 29.9115C87.1972 30.3945 87.0116 30.866 87.0812 31.349H78.4508C78.7988 30.9235 79.0656 30.4405 79.228 29.9115L84.4016 16.1115C84.5872 15.6285 84.7728 15.157 84.7032 14.674H99.2844C99.1568 15.157 99.412 15.6285 99.5976 16.1115C100.027 17.158 104.702 28.9685 105.073 29.9ZM92.7304 25.1965L91.1992 21.3325C91.0716 20.976 90.9556 20.608 90.8628 20.24C90.7932 20.608 90.7004 20.976 90.5612 21.3325C90.5148 21.4935 89.8652 23.184 89.1112 25.1965H92.7304ZM22.968 14.674H11.6C11.8552 15.157 11.8552 15.6285 11.8552 16.1115V29.9115C11.8552 30.3945 11.8552 30.866 11.6 31.349H22.968C22.7128 30.866 22.7128 30.3945 22.7128 29.9115V16.1115C22.7128 15.6285 22.7128 15.157 22.968 14.674ZM101.581 15.985C101.535 14.812 102.474 13.8345 103.692 13.8H103.843C105.073 13.7885 106.082 14.72 106.105 15.9045V15.985C106.14 17.1925 105.154 18.2045 103.89 18.239C102.648 18.2735 101.593 17.319 101.558 16.1C101.57 16.0655 101.57 16.0195 101.57 15.985H101.581ZM102.034 15.985C102.034 16.951 102.846 17.733 103.843 17.733C104.841 17.733 105.653 16.9395 105.653 15.985C105.653 15.0305 104.841 14.237 103.843 14.237C102.88 14.2025 102.068 14.927 102.034 15.8585V15.985ZM103.391 17.296H102.996V14.6625H104.006C104.493 14.674 104.852 15.0535 104.852 15.5135C104.852 15.8355 104.667 16.123 104.365 16.284L104.945 17.296H104.493L103.959 16.3645H103.379V17.296H103.391ZM103.936 15.985C104.203 15.9965 104.435 15.8125 104.435 15.548C104.435 15.2835 104.249 15.065 103.982 15.065H103.379V15.985H103.936Z" fill="#0058A3"/>
</svg>
