<svg width="166" height="29" viewBox="0 0 166 29" fill="none" xmlns="http://www.w3.org/2000/svg">
<path d="M98.4956 15.8496C98.7717 17.926 99.9451 19.1026 102.016 19.1026C103.879 19.1026 105.122 18.4797 105.122 17.3723C105.122 16.2649 104.086 16.1265 100.911 15.1575C97.5293 14.1885 95.6657 12.9427 95.6657 10.5895C95.6657 8.23628 97.7364 5.81384 101.533 5.81384C105.329 5.81384 107.331 7.75179 108.09 10.4511L104.915 11.42C104.432 10.105 103.672 8.99761 101.533 8.99761C99.9451 8.99761 99.1168 9.68974 99.1168 10.4511C99.1168 11.3508 99.738 11.5585 103.81 12.7351C107.676 13.7733 108.504 15.3652 108.504 17.5107C108.504 19.7255 106.64 22.3556 102.154 22.3556C97.4603 22.3556 95.4586 19.4487 95.0445 16.7494L98.4956 15.8496Z" fill="black"/>
<path d="M109.953 6.22912H113.75V21.8711H109.953V6.22912Z" fill="black"/>
<path d="M119.341 23.1169C120.238 24.778 121.204 25.6778 123.068 25.6778C124.931 25.6778 126.381 24.778 126.381 22.4248V20.4177H126.312C125.76 21.3866 124.241 22.3556 122.447 22.3556C118.65 22.3556 115.406 19.4487 115.406 14.1193C115.406 8.78998 118.857 5.88306 122.378 5.88306C124.517 5.88306 125.829 6.92124 126.519 7.821H126.588V6.29833H130.246V21.9403C130.246 26.716 127.14 29 123.137 29C119.755 29 117.546 27.3389 116.511 25.1241L119.341 23.1169ZM126.381 12.4582C126.381 10.7279 125.138 9.27446 122.999 9.27446C120.859 9.27446 119.202 10.8663 119.202 14.0501C119.202 17.2339 120.859 18.8258 122.999 18.8258C125.069 18.8258 126.381 17.3723 126.381 15.642V12.4582Z" fill="black"/>
<path d="M119.341 23.1169C120.238 24.778 121.204 25.6778 123.068 25.6778C124.931 25.6778 126.381 24.778 126.381 22.4248V20.4177H126.312C125.76 21.3866 124.241 22.3556 122.447 22.3556C118.65 22.3556 115.406 19.4487 115.406 14.1193C115.406 8.78998 118.857 5.88306 122.378 5.88306C124.517 5.88306 125.829 6.92124 126.519 7.821H126.588V6.29833H130.246V21.9403C130.246 26.716 127.14 29 123.137 29C119.755 29 117.546 27.3389 116.511 25.1241L119.341 23.1169ZM126.381 12.4582C126.381 10.7279 125.138 9.27446 122.999 9.27446C120.859 9.27446 119.202 10.8663 119.202 14.0501C119.202 17.2339 120.859 18.8258 122.999 18.8258C125.069 18.8258 126.381 17.3723 126.381 15.642V12.4582Z" fill="black"/>
<path d="M132.731 6.22912H136.389V7.75179H136.458C137.286 6.7136 138.874 5.81384 140.6 5.81384C144.051 5.81384 146.121 7.95943 146.121 11.6277V21.8711H142.325V12.5967C142.325 10.5895 141.704 9.34368 139.564 9.34368C137.701 9.34368 136.596 10.5203 136.596 12.3198V21.8711H132.8V6.22912H132.731Z" fill="black"/>
<path d="M150.884 15.8496C151.16 17.926 152.333 19.1026 154.404 19.1026C156.268 19.1026 157.51 18.4797 157.51 17.3723C157.51 16.2649 156.475 16.1265 153.3 15.1575C149.918 14.1885 148.054 12.9427 148.054 10.5895C148.054 8.23628 150.125 5.81384 153.921 5.81384C157.717 5.81384 159.719 7.75179 160.478 10.4511L157.303 11.42C156.82 10.105 156.061 8.99761 153.921 8.99761C152.333 8.99761 151.505 9.68974 151.505 10.4511C151.505 11.3508 152.126 11.5585 156.199 12.7351C160.064 13.7733 160.892 15.3652 160.892 17.5107C160.892 19.7255 159.029 22.3556 154.542 22.3556C149.849 22.3556 147.847 19.4487 147.433 16.7494L150.884 15.8496Z" fill="black"/>
<path d="M63.501 1.24582H70.4033C74.9588 1.24582 79.3073 4.42959 79.3073 11.5585C79.3073 19.4487 74.7518 21.9403 70.1963 21.9403H63.501V1.24582ZM70.2653 18.2029C72.8191 18.2029 75.0969 17.2339 75.0969 11.5585C75.0969 6.7136 73.0262 4.98329 70.4724 4.98329H67.5734V18.2721H70.2653V18.2029Z" fill="black"/>
<path d="M94.0091 18.895C92.6977 20.7637 90.8341 22.3556 87.59 22.3556C83.3106 22.3556 80.2046 19.1718 80.2046 14.1193C80.2046 9.06683 83.3796 5.88306 87.383 5.88306C91.4553 5.88306 94.5613 9.06683 94.5613 14.1193V15.2959H84.0699C84.2079 17.7184 85.4503 19.0334 87.521 19.0334C89.5227 19.0334 90.558 17.6492 91.3173 16.611L94.0091 18.895ZM90.8341 12.389C90.627 10.3819 89.4536 9.20525 87.383 9.20525C85.4503 9.20525 84.2079 10.6587 84.0699 12.389H90.8341Z" fill="black"/>
<path d="M0 1.24582H6.90229C11.4578 1.24582 15.8062 4.42959 15.8062 11.5585C15.8062 19.4487 11.2507 21.9403 6.69522 21.9403H0V1.24582ZM6.69522 18.2029C9.24907 18.2029 11.5268 17.2339 11.5268 11.5585C11.5268 6.7136 9.45613 4.98329 6.90229 4.98329H4.00333V18.2721H6.69522V18.2029Z" fill="black"/>
<path d="M30.5081 18.895C29.1967 20.7637 27.3331 22.3556 24.089 22.3556C19.8096 22.3556 16.7035 19.1718 16.7035 14.1193C16.7035 9.06683 19.8786 5.88306 23.8819 5.88306C27.9543 5.88306 31.0603 9.06683 31.0603 14.1193V15.2959H20.5688C20.7069 17.7184 21.9493 19.0334 24.02 19.0334C26.0216 19.0334 27.057 17.6492 27.8162 16.611L30.5081 18.895ZM27.3331 12.389C27.126 10.3819 25.9526 9.20525 23.8819 9.20525C21.9493 9.20525 20.7069 10.6587 20.5688 12.389H27.3331Z" fill="black"/>
<path d="M32.6478 6.29833H36.306V7.821H36.375C37.2033 6.78282 38.7909 5.88306 40.5164 5.88306C43.9676 5.88306 46.0383 8.02864 46.0383 11.6969V21.9403H42.242V12.5967C42.242 10.5895 41.6208 9.34368 39.4811 9.34368C37.6175 9.34368 36.5131 10.5203 36.5131 12.3198V21.8711H32.7168V6.29833H32.6478Z" fill="black"/>
<path d="M52.1813 21.6635L46.0383 6.29833H49.9035L53.9069 16.8878H53.8378L57.8412 6.29833H61.8445L52.8715 28.5847H48.9372L52.1813 21.6635Z" fill="black"/>
<path d="M111.817 4.29117C112.999 4.29117 113.957 3.33056 113.957 2.14559C113.957 0.960611 112.999 0 111.817 0C110.635 0 109.677 0.960611 109.677 2.14559C109.677 3.33056 110.635 4.29117 111.817 4.29117Z" fill="black"/>
<path d="M163.86 21.8711C165.042 21.8711 166 20.9105 166 19.7255C166 18.5406 165.042 17.58 163.86 17.58C162.679 17.58 161.721 18.5406 161.721 19.7255C161.721 20.9105 162.679 21.8711 163.86 21.8711Z" fill="black"/>
</svg>
