<svg width="155" height="36" viewBox="0 0 155 36" fill="none" xmlns="http://www.w3.org/2000/svg">
<path d="M71.0777 6.91894C72.0438 6.91894 72.8697 6.62235 73.5553 6.02915C74.241 5.43596 74.5838 4.72121 74.5838 3.88004C74.5838 3.03888 74.241 2.31927 73.5553 1.72121C72.8697 1.12316 72.0438 0.82656 71.0777 0.82656C70.1116 0.82656 69.2857 1.12316 68.5949 1.72121C67.904 2.31927 67.556 3.03888 67.556 3.88004C67.556 4.72121 67.8988 5.43596 68.5949 6.02915C69.2857 6.62235 70.1168 6.91894 71.0777 6.91894ZM131.481 8.60614L131.107 8.62072L124.635 8.88329L121.737 21.4862C121.57 22.201 121.139 22.8379 120.521 23.2804C120.038 23.6256 119.524 23.927 118.979 24.1847C118.386 24.4619 117.872 24.6369 117.41 24.7342C116.844 24.8217 115.945 24.7877 115.202 23.9854C114.896 23.6596 114.73 23.2269 114.641 22.7698C114.652 22.5413 114.688 22.2155 114.761 21.7877C114.839 21.3063 114.948 20.8298 115.088 20.363L116.584 15.4279C116.75 14.9076 116.854 14.3484 116.911 13.7407C116.963 13.1329 116.994 12.7147 116.994 12.4862C116.994 11.3728 116.553 10.4392 115.675 9.68556C114.797 8.93191 113.545 8.55752 111.925 8.55752C111.338 8.55752 110.725 8.62559 110.091 8.75201C110.013 8.76173 109.925 8.77632 109.811 8.80549H109.795C108.653 9.11181 107.66 9.15557 107.297 9.16043H104.082L105.515 3.41813H98.903L97.4278 9.16043H95.2307C94.7425 9.16043 94.3165 9.47162 94.2075 9.91408C94.0516 10.5267 94.5555 11.1151 95.2307 11.1151H96.8617L94.3321 21.1993C94.2074 21.7342 94.0984 22.269 94.0049 22.8087C93.9373 23.2463 93.901 23.6937 93.901 24.1361C93.901 25.2739 94.3892 26.2123 95.3709 26.9514C96.3526 27.6904 97.6564 28.0599 99.2874 28.0599C100.279 28.0599 101.381 27.9189 102.586 27.6418C103.682 27.389 104.752 27.0535 105.79 26.645C106.045 26.5478 106.227 26.3387 106.294 26.0956C106.445 25.517 105.894 24.987 105.266 25.1183L105.079 25.1572C104.336 25.3079 103.754 25.3857 103.334 25.3857C102.451 25.3857 101.791 25.2496 101.365 24.9676C100.939 24.6904 100.721 24.1896 100.721 23.47C100.721 23.3193 100.768 22.9886 100.856 22.483C100.944 21.9773 101.038 21.5494 101.131 21.1945L103.619 11.1102H108.279C108.98 11.1685 109.489 11.3971 109.748 11.6304C110.055 11.9027 110.211 12.3987 110.211 13.1183C110.211 13.41 110.148 13.8622 110.019 14.4749C109.92 14.9611 109.806 15.4424 109.681 15.9238L108.143 21.1021C107.936 21.8363 107.811 22.4052 107.764 22.8087C107.733 23.081 107.712 23.3484 107.702 23.6159C107.666 24.5154 107.873 25.4198 108.388 26.1734C109.26 27.4424 110.699 28.0502 112.704 27.9967C112.746 27.987 112.792 27.9773 112.834 27.9627L112.787 27.987L112.766 27.9967C112.766 27.9967 117.514 28.1134 121.041 24.846C120.687 26.4554 120.267 27.8509 119.768 29.0275C119.607 29.4068 119.43 29.7812 119.238 30.1507C118.875 30.7342 117.254 32.4214 115.374 32.4214C113.493 32.4214 111.312 30.2869 111.312 30.2869V30.3355C111.166 30.2188 111.011 30.1118 110.85 30.0097C110.273 29.645 109.619 29.4603 108.881 29.4603C107.915 29.4603 107.157 29.7423 106.596 30.3112C106.04 30.88 105.759 31.5316 105.759 32.2658C105.759 32.6839 105.858 33.1118 106.055 33.5446C106.253 33.9822 106.622 34.376 107.167 34.7309C107.764 35.1248 108.601 35.4311 109.665 35.6499C110.73 35.8687 112.075 35.9805 113.696 35.9805C115.176 35.9805 116.641 35.7958 118.08 35.4214C119.529 35.047 120.89 34.4246 122.1 33.5932C123.394 32.7082 124.526 31.517 125.508 30.0194C126.484 28.5219 127.248 26.6207 127.793 24.3209L131.356 9.03888L131.476 8.59155L131.481 8.60614ZM87.3563 18.4181C89.247 17.9368 90.7429 17.2026 91.8493 16.2107C92.9504 15.2188 93.501 14.0324 93.501 12.6564C93.501 12.0924 93.4023 11.5867 93.205 11.1296C93.1842 11.0859 93.1634 11.0421 93.1426 11.0032C92.831 10.3565 92.3168 9.82656 91.5896 9.41327C90.317 8.69366 88.4627 8.33385 86.0266 8.33385C83.9593 8.33385 82.0686 8.66935 80.3493 9.34034C78.6352 10.0113 77.2172 10.8817 76.1057 11.9562C74.9214 13.0794 74.0332 14.3436 73.4307 15.7488C72.8385 17.1296 72.5321 18.6029 72.5321 20.0907C72.5321 21.2674 72.7294 22.342 73.1242 23.3144C73.3787 23.9368 73.7215 24.5251 74.1527 25.0599C74.1786 25.0891 74.2046 25.1183 74.2306 25.1475C74.1423 25.1718 74.0644 25.1961 73.9657 25.2204C73.4514 25.3517 72.9892 25.4198 72.5788 25.4198C71.7062 25.4198 71.0985 25.2885 70.7453 25.021C70.3921 24.7536 70.2155 24.2577 70.2155 23.5235C70.2155 23.2317 70.2674 22.8039 70.3817 22.235C70.4907 21.6661 70.6154 21.1604 70.7505 20.718L72.4282 15.1993C72.5892 14.6937 72.7035 14.1394 72.7658 13.5316C72.8281 12.9238 72.8593 12.5008 72.8593 12.2625C72.8593 11.1005 72.4178 10.1572 71.54 9.42786C70.6622 8.70338 69.4104 8.33872 67.7898 8.33872C66.8912 8.33872 65.9354 8.48944 64.9278 8.78604C63.8578 9.10209 62.8033 9.46189 61.7593 9.85573V9.86546C61.6243 9.76335 61.4892 9.66611 61.349 9.57372C60.0764 8.75201 58.2376 8.34358 55.8275 8.34358C53.7447 8.34358 51.8592 8.67907 50.1711 9.35006C48.4829 10.021 47.1013 10.8865 46.0261 11.9465C44.8678 13.0697 44.0107 14.3193 43.455 15.6904C43.2004 16.3176 43.0031 16.9595 42.868 17.6159C42.9251 17.1588 42.9563 16.6969 42.9563 16.2301C42.9563 13.7407 42.0681 11.7958 40.2917 10.4003C39.3775 9.68069 38.2867 9.14585 37.0245 8.80063L37.7517 7.5559C38.1465 6.88004 37.6219 6.05346 36.7908 6.05346C36.3857 6.05346 36.0169 6.25768 35.8247 6.58831L34.7703 8.3922C34.1885 8.33385 33.6016 8.30954 33.0146 8.30954C30.9889 8.30954 29.1034 8.61586 27.3633 9.2285C25.6233 9.84115 24.1533 10.6726 22.9535 11.7228C21.7484 12.7877 20.7875 14.0713 20.1278 15.4959C19.4526 16.9352 19.1201 18.4959 19.1201 20.1783C19.1201 20.436 19.1305 20.6839 19.1513 20.9319C19.0111 19.8817 18.5592 19.0113 17.7956 18.3209C16.8555 17.4749 15.4634 16.7455 13.6091 16.1426C12.9339 15.9335 12.2638 15.7099 11.599 15.4716C11.0588 15.2771 10.6172 15.0632 10.2588 14.8347C9.95239 14.6402 9.69788 14.3776 9.51608 14.0762C9.34986 13.799 9.26156 13.4198 9.24598 12.953C9.25637 12.7828 9.31351 12.3598 9.57322 11.9514C9.9472 11.4262 10.5497 10.9108 11.4587 10.9108C13.3182 10.9108 14.0454 12.3501 14.0454 12.3501V12.3355C14.1233 12.4668 14.1857 12.598 14.2636 12.7293C14.5908 13.2544 15.0271 13.7115 15.5413 14.081C16.066 14.4603 16.7204 14.6499 17.5099 14.6499C18.4189 14.6499 19.1617 14.4019 19.7227 13.9011C20.2836 13.4003 20.5693 12.8022 20.5693 12.1118C20.5693 11.4214 20.3668 10.8233 19.9668 10.3371C19.5668 9.85087 19.0059 9.45703 18.2839 9.15071C17.4944 8.83953 16.6633 8.63045 15.8114 8.52348C14.9284 8.41165 13.9675 8.3533 12.9339 8.3533C11.2042 8.3533 9.69268 8.52834 8.40452 8.87356C7.11117 9.22364 6.04116 9.68555 5.1997 10.269C4.34266 10.8768 3.71416 11.5381 3.30901 12.248C2.90906 12.953 2.70129 13.7358 2.70649 14.5332C2.70649 15.8995 3.18435 17.0373 4.14528 17.9562C5.10621 18.8703 6.40995 19.5899 8.05651 20.1102C8.65384 20.2998 9.26156 20.504 9.87448 20.718C10.4874 20.9319 10.9912 21.1556 11.386 21.3792C11.7807 21.6175 12.0976 21.8995 12.3365 22.2155C12.5703 22.5267 12.6897 22.9157 12.6949 23.3728C12.6949 23.3728 12.6793 25.5219 10.3783 25.5219C8.84083 25.5219 7.84874 24.7536 7.35529 24.2431C7.23583 24.0924 7.11117 23.9465 6.98651 23.7958C6.7268 23.4894 6.43592 23.1539 6.14505 22.8476C5.98922 22.6677 5.81262 22.4975 5.63082 22.342C5.39189 22.128 5.17373 21.9627 5.01271 21.8995C5.00232 21.8995 4.99193 21.8995 4.98155 21.8946C4.49329 21.6321 3.91674 21.4959 3.24668 21.4959C2.26498 21.4959 1.48066 21.7682 0.888519 22.3225C0.296381 22.8719 0.000311384 23.5138 0.000311384 24.248C0.000311384 24.6515 0.124972 25.0843 0.369099 25.5462C0.613227 26.0081 1.07032 26.4408 1.73517 26.8444C2.38964 27.248 3.27785 27.5786 4.3998 27.8411C5.52174 28.0988 6.93976 28.2301 8.65384 28.2301C10.5445 28.2301 12.1028 28.0745 13.3286 27.7634C14.5544 27.4522 15.6348 26.9951 16.575 26.3873C17.4165 25.833 18.0709 25.1377 18.5228 24.3014C18.9799 23.4651 19.2085 22.5948 19.2085 21.6856C19.2085 21.564 19.1981 21.4424 19.1929 21.3257C19.4318 23.2706 20.294 24.8509 21.7952 26.0567C22.3873 26.5332 23.0418 26.927 23.7586 27.248L22.995 28.5559C22.6626 29.1248 23.1093 29.8201 23.8053 29.8201C24.3715 29.8201 24.8909 29.5332 25.1662 29.0713L25.8414 27.9189C26.7608 28.1134 27.7529 28.2107 28.8229 28.2107C30.9889 28.2107 32.9367 27.8995 34.6716 27.2723C36.4064 26.645 37.9179 25.7601 39.2113 24.6078C40.406 23.5381 41.3513 22.2447 41.985 20.8152C42.307 20.1005 42.5512 19.3565 42.7174 18.5932C42.655 19.0794 42.6291 19.5656 42.6239 20.0567C42.6239 22.5948 43.4965 24.5932 45.247 26.047C46.9974 27.5008 49.4335 28.2253 52.5656 28.2253C54.6069 28.2253 56.5443 27.739 58.3831 26.7666C60.1024 25.8574 61.5048 24.6661 62.5956 23.2026C62.7202 23.0324 62.6839 22.799 62.5125 22.6677C61.8892 22.1766 60.9646 22.2398 60.414 22.8039C59.6868 23.5624 58.97 24.1264 58.2688 24.5057C57.2663 25.0405 56.0197 25.3128 54.5238 25.3128C53.0279 25.3128 51.9215 24.7974 51.1268 23.7569C50.3321 22.7212 49.9321 21.1993 49.9321 19.1864C49.9321 16.5462 50.4567 14.329 51.506 12.5397C52.0825 11.5527 52.7526 10.8476 53.4953 10.4052C53.8018 10.2544 54.1394 10.1669 54.4874 10.1475C54.5757 10.1475 54.6692 10.1377 54.7523 10.1377C54.7887 10.1377 54.8147 10.1475 54.851 10.1475C54.9445 10.1572 55.038 10.1718 55.1211 10.1864C56.669 10.6094 56.2742 13.5316 56.2742 13.5316C56.1963 13.8476 56.16 14.1734 56.16 14.4992C56.16 15.0292 56.456 15.5397 57.0482 16.0259C57.6403 16.5121 58.4662 16.7552 59.531 16.7552C60.3361 16.7552 60.9386 16.6483 61.3386 16.4343C61.7385 16.2204 62.1125 15.9092 62.4501 15.5057C62.7202 15.175 62.928 14.7715 63.063 14.295C63.1981 13.8136 63.2656 13.376 63.2656 12.987C63.2656 12.3014 63.1202 11.6888 62.8345 11.1394C63.1617 11.0713 63.4994 11.0324 63.837 11.0324C64.7252 11.0324 65.3225 11.1734 65.6394 11.4505C65.951 11.7277 66.1068 12.2188 66.1068 12.9287C66.1068 13.3225 66.0549 13.7552 65.9562 14.2269C65.8471 14.7326 65.7173 15.2334 65.577 15.7342L63.8941 21.2723C63.7591 21.7877 63.65 22.3079 63.5669 22.8379C63.4994 23.2998 63.463 23.752 63.463 24.1945C63.463 25.3322 63.9149 26.2706 64.8187 27.0097C65.7225 27.7488 66.9951 28.1183 68.626 28.1183C69.6856 28.1183 70.6206 27.987 71.4205 27.7293C72.2256 27.4716 73.3008 27.0924 74.6461 26.6013L75.446 26.329C76.1524 26.859 76.9887 27.2869 77.9652 27.6126C79.1962 28.0259 80.6298 28.2301 82.2608 28.2301C84.3696 28.2301 86.3798 27.7488 88.2913 26.7812C90.0209 25.906 91.4701 24.7634 92.6388 23.3582C92.8466 23.1102 92.7946 22.7455 92.5349 22.5462C91.9947 22.128 91.1844 22.1621 90.7117 22.6483C89.9326 23.4505 89.1275 24.0632 88.2964 24.4911C87.1745 25.0648 85.8084 25.3517 84.2034 25.3517C83.2789 25.3517 82.5153 25.1864 81.918 24.8509C81.331 24.5251 80.848 24.0583 80.5311 23.4943C80.261 23.0032 80.0533 22.4052 79.9182 21.7099C79.7832 21.0146 79.7001 20.3873 79.6741 19.833C81.196 19.6823 82.4893 19.517 83.5438 19.342C84.5982 19.1669 85.876 18.8703 87.3719 18.4522L87.3563 18.4181ZM26.3037 22.342C26.3037 21.1896 26.4076 19.8865 26.6102 18.4279C26.8128 16.9692 27.1556 15.6126 27.6334 14.363C28.1788 12.8606 28.8852 11.718 29.7579 10.94C30.6305 10.1621 31.5862 9.77308 32.6354 9.77308C33.0873 9.77308 33.4873 9.84601 33.8405 9.98215L26.3193 22.8428C26.3141 22.6775 26.3089 22.5121 26.3089 22.342H26.3037ZM35.4091 18.2771C35.165 19.7504 34.8014 21.0924 34.3288 22.3079C33.8509 23.5478 33.2068 24.5883 32.3913 25.4343C31.5758 26.2804 30.6097 26.7034 29.493 26.7034C28.4645 26.7034 27.6802 26.363 27.1348 25.6823L35.3936 11.5867C35.6481 12.2334 35.7779 13.0599 35.7779 14.0762C35.7779 15.4035 35.6533 16.8039 35.4091 18.2771ZM80.7285 18.1215C80.3909 18.1702 80.0585 18.2139 79.7208 18.248C79.9805 15.8217 80.5727 13.8136 81.5076 12.2285C82.4426 10.6434 83.4295 9.85087 84.4787 9.85087C84.6709 9.85087 84.8475 9.87032 85.0189 9.90436C85.5176 10.0162 85.9227 10.2836 86.2344 10.7115C86.6551 11.2852 86.868 12.1118 86.868 13.1864C86.868 14.2609 86.6447 15.1458 86.1928 15.8022C85.7409 16.4587 85.0085 16.9984 83.9905 17.4116C83.5282 17.6013 82.8997 17.7666 82.1102 17.9027C81.6531 17.9854 81.1908 18.0535 80.7337 18.1167L80.7285 18.1215ZM152.917 12.0826C151.536 10.8185 149.827 10.1864 147.786 10.1864C147.645 10.1864 147.515 10.1961 147.375 10.201C147.323 10.201 147.282 10.1961 147.23 10.1961C146.175 10.1961 145.168 10.3565 144.259 10.5899H144.238C141.911 11.188 140.249 12.2431 140.14 12.3112C140.566 11.2463 141.038 10.2204 141.568 9.24795C142.15 8.1734 142.893 7.1815 143.765 6.29658C144.648 5.40192 145.729 4.58021 147.001 3.83628C148.175 3.15071 149.531 2.60614 151.079 2.19771L151.894 2.03239L152.762 1.90111C153.208 1.83304 153.593 1.51214 153.655 1.09398C153.749 0.452167 153.167 -0.0778164 152.507 0.0097039C146.321 0.831422 141.298 2.94649 137.439 6.36465C133.356 9.97729 131.315 14.3193 131.315 19.3906C131.315 22.0454 132.224 24.175 134.042 25.7796C135.86 27.3841 138.291 28.1864 141.34 28.1864C145.178 28.1864 148.414 27.0778 151.048 24.8703C153.681 22.658 154.995 20.0421 154.995 17.0227C154.995 15 154.304 13.3565 152.923 12.0924L152.917 12.0826ZM145.698 23.8104C144.576 25.6629 143.256 26.5867 141.734 26.5867C140.758 26.5867 139.974 26.1199 139.381 25.1864C138.789 24.2528 138.498 22.9497 138.498 21.282C138.498 19.6142 138.623 18.2771 138.867 17.1588L138.966 16.7066C139.246 15.4376 139.994 14.2804 141.137 13.5413C141.521 13.2933 141.942 13.094 142.384 12.9627C142.882 12.8363 143.396 12.7682 143.916 12.7682C144.918 12.7682 145.749 13.1523 146.399 13.9254C147.048 14.6985 147.375 15.7439 147.375 17.0713C147.375 19.7115 146.814 21.9578 145.698 23.8104Z" fill="black"/>
</svg>
