<svg width="207" height="22" viewBox="0 0 207 22" fill="none" xmlns="http://www.w3.org/2000/svg">
<path d="M0 0.416746H3.95184V16.7975C3.95184 17.7485 4.16507 18.7302 5.31963 18.7302C6.41501 18.7302 6.77871 17.8081 6.77871 16.7975V0.416746H10.1226V16.2918C10.1226 20.4544 8.23743 22 5.07681 22C2.03707 22 0 20.4544 0 16.2918V0.416746Z" fill="#231F20"/>
<path d="M18.758 9.39474H19.5478C21.0065 9.39474 21.5534 7.96804 21.5534 6.45171C21.5534 4.16258 20.7027 3.50904 19.3659 3.50904H18.758V9.39474ZM14.8061 0.417095H19.2436C23.0139 0.417095 25.5053 1.96272 25.5053 6.42242C25.5053 8.20554 24.9583 10.584 23.1954 11.595L25.5367 21.584H21.5534L19.6996 12.4867H18.758V21.584H14.8061V0.417095Z" fill="#231F20"/>
<path d="M33.4122 18.4917C35.783 18.4917 36.1481 17.5699 36.1481 15.3701C36.1481 13.4381 35.6607 12.3378 33.4122 12.3674V18.4917ZM33.4122 9.09727C35.3883 9.09727 35.9035 8.20519 35.9035 6.30245C35.9035 3.89509 35.3883 3.4787 33.4122 3.50869V9.09727ZM29.4603 0.416746H34.3243C36.7561 0.416746 39.6739 1.72487 39.6739 5.76783C39.6739 8.14625 38.5799 9.989 36.1481 10.4947V10.554C38.8527 11.1782 40.0982 13.0213 40.0982 15.6972C40.0982 19.5623 37.4236 21.5836 34.5058 21.5836H29.4603V0.416746Z" fill="#231F20"/>
<path d="M48.582 3.68654H48.521L47.2752 13.7945H49.7369L48.582 3.68654ZM46.0593 0.416746H51.774L54.4486 21.5836H50.6487L50.0721 16.8864H46.8804L46.3335 21.5836H43.0192L46.0593 0.416746Z" fill="#231F20"/>
<path d="M58.0367 0.416746H61.8976L65.5143 11.5946H65.5753V0.416746H68.7359V21.5836H65.6662L61.4416 8.77084H61.3806V21.5836H58.0367V0.416746Z" fill="#231F20"/>
<path d="M85.3363 13.2299C85.3363 17.8081 85.8832 18.7302 86.795 18.7302C87.7071 18.7302 88.2541 17.8081 88.2541 13.2299V8.77085C88.2541 4.19222 87.7071 3.2705 86.795 3.2705C85.8832 3.2705 85.3363 4.19222 85.3363 8.77085V13.2299ZM86.795 0C90.2911 0 92.571 2.6459 92.571 11C92.571 19.3541 90.2911 22 86.795 22C83.2992 22 81.0193 19.3541 81.0193 11C81.0193 2.6459 83.2992 0 86.795 0Z" fill="#231F20"/>
<path d="M96.6762 0.416746H100.628V16.7975C100.628 17.7485 100.841 18.7302 101.996 18.7302C103.09 18.7302 103.455 17.8081 103.455 16.7975V0.416746H106.799V16.2918C106.799 20.4544 104.914 22 101.753 22C98.7133 22 96.6762 20.4544 96.6762 16.2918V0.416746Z" fill="#231F20"/>
<path d="M113.305 3.68654H109.901V0.416746H120.661V3.68654H117.257V21.5836H113.305V3.68654Z" fill="#231F20"/>
<path d="M123.916 0.416746H132.761V3.68654H127.868V9.33546H131.484V12.7838H127.868V21.5836H123.916V0.416746Z" fill="#231F20"/>
<path fill-rule="evenodd" clip-rule="evenodd" d="M136.166 0.416749H140.118V21.5836H136.166V0.416749Z" fill="#231F20"/>
<path d="M146.624 3.68654H143.221V0.416746H153.981V3.68654H150.576V21.5836H146.624V3.68654Z" fill="#231F20"/>
<path d="M159.058 3.68654H155.654V0.416746H166.414V3.68654H163.01V21.5836H159.058V3.68654Z" fill="#231F20"/>
<path d="M169.669 0.416746H178.605V3.68654H173.621V9.09727H177.299V12.5463H173.621V18.3131H178.819V21.5836H169.669V0.416746Z" fill="#231F20"/>
<path d="M186.602 9.39474H187.393C188.852 9.39474 189.399 7.96804 189.399 6.45171C189.399 4.16258 188.548 3.50904 187.21 3.50904H186.602V9.39474ZM182.65 0.417095H187.089C190.858 0.417095 193.351 1.96272 193.351 6.42242C193.351 8.20554 192.804 10.584 191.039 11.595L193.381 21.584H189.399L187.545 12.4867H186.602V21.584H182.65V0.417095Z" fill="#231F20"/>
<path d="M200.008 15.4597C200.008 16.6489 200.008 18.7302 201.712 18.7302C203.019 18.7302 203.475 17.541 203.475 16.6789C203.475 12.9027 196.301 12.0406 196.301 5.76783C196.301 2.58696 198.064 3.50733e-07 201.408 3.50733e-07C204.963 3.50733e-07 206.331 2.6459 206.423 6.45137H202.896C202.896 5.26286 202.896 3.2705 201.317 3.2705C200.374 3.2705 199.827 4.04366 199.827 5.20322C199.827 8.79979 207 10.019 207 16.1732C207 19.4137 205.115 22 201.56 22C197.334 22 196.483 18.3731 196.483 15.4597H200.008Z" fill="#231F20"/>
</svg>
